<?xml version="1.0" encoding="UTF-8"?>
<svg width="1440px" height="416px" viewBox="0 0 1440 416" version="1.1" xmlns="http://www.w3.org/2000/svg" xmlns:xlink="http://www.w3.org/1999/xlink">
    <!-- Generator: Sketch 59 (86127) - https://sketch.com -->
    <title>banner-shape</title>
    <desc>Created with Sketch.</desc>
    <defs>
        <rect id="path-1" x="0" y="0" width="1440" height="1518"></rect>
        <radialGradient cx="26.265%" cy="-16.6%" fx="26.265%" fy="-16.6%" r="143.208576%" gradientTransform="translate(0.262650,-0.166000),scale(0.494914,1.000000),translate(-0.262650,0.166000)" id="radialGradient-3">
            <stop stop-color="#5CCE93" offset="0%"></stop>
            <stop stop-color="#5CCE93" offset="11.7%"></stop>
            <stop stop-color="#30936D" offset="44.2%"></stop>
            <stop stop-color="#02483E" offset="100%"></stop>
        </radialGradient>
        <radialGradient cx="73.665%" cy="-16.6%" fx="73.665%" fy="-16.6%" r="143.208576%" gradientTransform="translate(0.736650,-0.166000),scale(0.494914,1.000000),rotate(180.000000),translate(-0.736650,0.166000)" id="radialGradient-4">
            <stop stop-color="#5CCE93" offset="0%"></stop>
            <stop stop-color="#5CCE93" offset="11.7%"></stop>
            <stop stop-color="#30936D" offset="44.4%"></stop>
            <stop stop-color="#054E44" offset="100%"></stop>
        </radialGradient>
    </defs>
    <g id="Page-1" stroke="none" stroke-width="1" fill="none" fill-rule="evenodd">
        <g id="banner-shape" transform="translate(0.000000, -625.000000)">
            <mask id="mask-2" fill="white">
                <use xlink:href="#path-1"></use>
            </mask>
            <g id="Rectangle_2"></g>
            <g id="Group_94" mask="url(#mask-2)" fill-rule="nonzero">
                <g transform="translate(-218.000000, 617.000000)">
                    <path d="M885.436,294.342 L885.436,534.353 L1880.616,534.353 L1880.616,294.342 L1870.609,294.342 L1870.609,283.332 L1871.959,283.332 L1871.959,277.616 L1874.273,277.616 L1874.273,270.294 L1870.609,270.294 L1870.609,200.071 L1871.959,200.071 L1871.959,194.355 L1874.273,194.355 L1874.273,187.027 L1870.609,187.027 L1870.609,129.503 L1871.959,129.503 L1871.959,123.782 L1874.273,123.782 L1874.273,116.454 L1870.529,116.454 C1870.36593,110.142711 1869.8404,103.846003 1868.955,97.595 C1868.955,97.595 1860.582,47.029 1858.967,47.008 C1857.352,46.987 1848.655,97.008 1848.655,97.008 C1847.69079,103.449196 1847.10977,109.941948 1846.915,116.452 L1843.166,116.452 L1843.166,123.78 L1845.475,123.78 L1845.475,129.501 L1846.819,129.501 L1846.819,187.026 L1843.165,187.026 L1843.165,194.354 L1845.474,194.354 L1845.474,200.07 L1846.818,200.07 L1846.818,270.296 L1843.164,270.296 L1843.164,277.618 L1845.473,277.618 L1845.473,283.334 L1846.817,283.334 L1846.817,294.342 L1839.904,294.342 L1839.904,277.735 L1839.784,277.735 C1839.75846,277.086126 1839.70005,276.438962 1839.609,275.796 C1839.40979,274.604813 1839.10561,273.433582 1838.7,272.296 C1838.655,272.159 1838.595,272.027 1838.545,271.885 C1838.316,271.332 1838.055,270.726 1837.751,270.073 C1837.636,269.857 1837.521,269.609 1837.396,269.373 C1833.952,262.541 1825.474,251.21 1805.53,239.452 L1805.165,229.164 C1806.00638,228.838396 1806.55939,228.027171 1806.555,227.125 C1806.56339,226.16951 1805.93675,225.324459 1805.02,225.055 L1804.69,215.736 C1805.40148,215.628727 1805.90994,214.991084 1805.85615,214.27358 C1805.80237,213.556076 1805.20452,213.001368 1804.485,213.001368 C1803.76548,213.001368 1803.16763,213.556076 1803.11385,214.27358 C1803.06006,214.991084 1803.56852,215.628727 1804.28,215.736 L1803.945,225.05 C1803.0575,225.322471 1802.44028,226.127563 1802.40757,227.055368 C1802.37487,227.983173 1802.93389,228.829722 1803.8,229.164 L1803.43,239.547 C1785.88,249.914 1777.373,259.939 1773.184,266.847 L1773.169,266.879 C1771.83292,269.042017 1770.73518,271.343452 1769.895,273.743 C1769.85,273.896 1769.795,274.033 1769.765,274.154 L1769.745,274.217 C1769.69,274.422 1769.62,274.617 1769.57,274.802 C1769.555,274.892 1769.52,274.981 1769.51,275.071 L1769.51,275.087 C1769.48337,275.16625 1769.46166,275.247071 1769.445,275.329 C1769.43718,275.364585 1769.42716,275.399652 1769.415,275.434 C1769.38736,275.526404 1769.37058,275.621713 1769.365,275.718 C1769.35411,275.74308 1769.34735,275.769759 1769.345,275.797 C1769.25386,276.439952 1769.19545,277.08712 1769.17,277.736 L1769.055,277.736 L1769.055,294.342 L1764.716,294.342 L1764.716,264.376 L1765.646,264.376 L1765.646,260.442 L1767.231,260.442 L1767.231,255.411 L1764.717,255.411 L1764.717,215.906 L1765.647,215.906 L1765.647,211.976 L1767.232,211.976 L1767.232,206.942 L1764.613,206.942 C1764.51642,202.608099 1764.17421,198.283159 1763.588,193.988 C1763.588,193.988 1757.83,159.252 1756.725,159.241 C1755.62,159.23 1749.637,193.587 1749.637,193.587 C1748.99924,198.012282 1748.62358,202.47139 1748.512,206.941 L1745.868,206.941 L1745.868,211.972 L1747.453,211.972 L1747.453,215.902 L1748.378,215.902 L1748.378,255.411 L1745.869,255.411 L1745.869,260.442 L1747.454,260.442 L1747.454,264.372 L1748.379,264.372 L1748.379,294.342 L1743.645,294.342 C1743.655,294.036 1743.685,293.731 1743.685,293.425 C1743.685,267.902 1719.547,247.057 1689.021,245.345 C1689.14128,244.9953 1689.20869,244.629604 1689.221,244.26 C1689.22206,243.069457 1688.59025,241.968076 1687.562,241.368 L1686.692,221.15 C1687.40729,220.997122 1687.91433,220.359343 1687.902,219.628 C1687.87205,218.861877 1687.26917,218.241659 1686.50421,218.190001 C1685.73924,218.138344 1685.05845,218.671877 1684.92578,219.427018 C1684.7931,220.182158 1685.25124,220.915804 1685.988,221.128 L1684.573,241.314 C1683.14134,242.05834 1682.48136,243.747174 1683.029,245.265 C1664.839,245.75 1648.774,253.019 1638.412,264.113 L1638.412,248.962 L1638.297,248.962 C1638.27398,248.311305 1638.21556,247.662345 1638.122,247.018 C1637.92173,245.829223 1637.61723,244.66038 1637.212,243.525 C1637.167,243.383 1637.097,243.246 1637.047,243.109 C1636.827,242.556 1636.562,241.95 1636.247,241.302 C1636.147,241.075 1636.022,240.828 1635.897,240.591 C1632.448,233.748 1624.056,222.306 1603.991,210.517 L1603.641,200.556 C1604.50199,200.217194 1605.05587,199.372407 1605.02328,198.447725 C1604.99069,197.523044 1604.37871,196.719349 1603.496,196.442 L1603.161,187.118 C1603.83722,187.00716 1604.33052,186.418174 1604.321,185.733 C1604.30206,185.00728 1603.72029,184.422332 1602.99469,184.399428 C1602.26908,184.376524 1601.65159,184.923618 1601.58691,185.646699 C1601.52224,186.36978 1602.03285,187.017772 1602.751,187.124 L1602.421,196.443 C1601.53207,196.713316 1600.91267,197.518002 1600.87882,198.446505 C1600.84496,199.375009 1601.40412,200.222666 1602.271,200.557 L1601.906,210.766 C1584.416,221.107 1575.813,231.179 1571.63,238.066 L1571.61,238.113 C1570.27683,240.274082 1569.17922,242.571883 1568.336,244.967 C1568.291,245.114 1568.241,245.251 1568.211,245.373 L1568.191,245.436 C1568.126,245.641 1568.066,245.847 1568.016,246.021 C1567.996,246.116 1567.966,246.205 1567.946,246.295 L1567.946,246.311 C1567.91628,246.387214 1567.89612,246.466823 1567.886,246.548 C1567.87922,246.586367 1567.86745,246.623683 1567.851,246.659 C1567.82779,246.752398 1567.81109,246.847292 1567.801,246.943 L1567.786,247.017 C1567.676,247.66 1567.666,248.307 1567.616,248.961 L1567.496,248.961 L1567.496,272.93 C1558.34624,262.595466 1546.39769,255.133876 1533.096,251.448 C1533.34139,250.376435 1533.31215,249.260249 1533.011,248.203 C1532.80184,247.083475 1532.46114,245.992581 1531.996,244.953 C1530.152,240.897 1526.118,238.021 1517.44,234.675 L1517.44,230.008 L1515.18,230.008 L1514.8,219.408 C1515.5,219.176 1516,218.76 1516,218.26 C1516,217.738 1515.47,217.296 1514.721,217.075 L1514.436,208.963 C1519.8955,210.302888 1525.66755,209.230077 1530.281,206.018 C1534.95123,202.752552 1538.14359,197.77551 1539.164,192.169 C1537.68536,194.411919 1535.7901,196.350295 1533.581,197.879 C1524.119,204.406 1511.407,201.603 1505.209,191.626 C1502.24807,186.834732 1501.19719,181.1052 1502.265,175.575 C1497.47426,182.890853 1497.33984,192.315498 1501.92,199.765 C1504.54293,204.059474 1508.65513,207.237958 1513.472,208.694 L1512.992,216.994 C1512.067,217.173 1511.383,217.658 1511.383,218.258 C1511.383,218.827 1511.998,219.306 1512.858,219.501 L1512.258,230.001 L1509.943,230.001 L1509.943,234.742 C1502.011,237.818 1498.012,240.516 1496.017,244.108 C1495.32013,245.385601 1494.83548,246.767946 1494.582,248.201 C1494.2746,249.25711 1494.24361,250.374475 1494.492,251.446 C1493.362,251.752 1492.303,252.146 1491.213,252.505 C1482.131,237.376 1465.76,220.987 1442.213,214.671 C1442.213,214.671 1442.633,213.628 1442.113,210.999 C1441.87511,209.729557 1441.49088,208.491965 1440.968,207.311 C1438.879,202.717 1434.31,199.462 1424.478,195.674 L1424.478,190.39 L1421.919,190.39 L1421.499,178.39 C1422.294,178.132 1422.854,177.663 1422.854,177.084 C1422.854,176.505 1422.259,176.004 1421.409,175.746 L1421.079,166.559 C1427.2651,168.081233 1433.80713,166.866103 1439.034,163.224 C1444.32088,159.531934 1447.93546,153.901067 1449.091,147.557 C1447.41198,150.091457 1445.26413,152.281734 1442.763,154.01 C1432.051,161.401 1417.655,158.224 1410.647,146.935 C1407.28822,141.510576 1406.0944,135.020586 1407.303,128.756 C1401.87827,137.038901 1401.72632,147.709995 1406.913,156.144 C1409.88473,161.006089 1414.54044,164.605799 1419.994,166.258 L1419.454,175.666 C1418.399,175.861 1417.624,176.414 1417.624,177.083 C1417.624,177.731 1418.319,178.283 1419.294,178.495 L1418.609,190.39 L1416,190.39 L1416,195.758 C1407.013,199.245 1402.484,202.29 1400.23,206.358 C1399.44202,207.8079 1398.8917,209.3748 1398.6,210.999 C1398.25884,212.195352 1398.22616,213.458608 1398.505,214.671 C1373.692,221.33 1356.792,239.177 1348.055,254.933 C1344.91492,253.525999 1341.6722,252.360291 1338.355,251.446 C1338.60043,250.374439 1338.57119,249.258243 1338.27,248.201 C1338.06017,247.082247 1337.72124,245.99162 1337.26,244.951 C1335.41,240.895 1331.377,238.019 1322.699,234.673 L1322.699,230.006 L1320.44,230.006 L1320.065,219.406 C1320.765,219.174 1321.265,218.758 1321.265,218.258 C1321.265,217.736 1320.73,217.294 1319.985,217.073 L1319.7,208.961 C1325.1595,210.300888 1330.93155,209.228077 1335.545,206.016 C1340.21485,202.750365 1343.40684,197.77335 1344.427,192.167 C1342.94963,194.410938 1341.05415,196.349535 1338.844,197.877 C1329.377,204.404 1316.665,201.601 1310.472,191.624 C1307.51117,186.832696 1306.46029,181.103201 1307.528,175.573 C1302.7375,182.888928 1302.60309,192.31343 1307.183,199.763 C1309.80586,204.057537 1313.91809,207.236043 1318.735,208.692 L1318.26,216.992 C1317.33,217.171 1316.646,217.656 1316.646,218.256 C1316.646,218.825 1317.261,219.304 1318.12,219.499 L1317.52,229.999 L1315.211,229.999 L1315.211,234.742 C1307.278,237.818 1303.274,240.516 1301.285,244.108 C1300.58885,245.386387 1300.10265,246.768338 1299.845,248.201 C1299.54036,249.257712 1299.5111,250.374788 1299.76,251.446 C1280.051,256.742 1265.993,270.042 1257.753,282.797 L1257.753,249.304 L1258.678,249.304 L1258.678,245.379 L1260.262,245.379 L1260.262,240.342 L1257.753,240.342 L1257.753,200.835 L1258.678,200.835 L1258.678,196.905 L1260.262,196.905 L1260.262,191.874 L1257.638,191.874 C1257.54506,187.539735 1257.20115,183.214492 1256.608,178.92 C1256.608,178.92 1250.86,144.184 1249.755,144.173 C1248.65,144.162 1242.667,178.509 1242.667,178.509 C1242.02709,182.937725 1241.65142,187.400621 1241.542,191.874 L1238.898,191.874 L1238.898,196.905 L1240.482,196.905 L1240.482,200.835 L1241.407,200.835 L1241.407,240.342 L1238.898,240.342 L1238.898,245.378 L1240.482,245.378 L1240.482,249.303 L1241.407,249.303 L1241.407,275.912 C1238.733,268.958 1233.249,258.912 1222.128,248.612 L1221.913,242.554 C1222.33229,242.416802 1222.61,242.018492 1222.59376,241.57763 C1222.57752,241.136768 1222.27124,240.759973 1221.843,240.654 L1221.678,235.939 C1222.00665,235.885135 1222.24913,235.603009 1222.253,235.27 C1222.26666,235.01826 1222.14012,234.779572 1221.9241,234.649593 C1221.70808,234.519614 1221.43792,234.519614 1221.2219,234.649593 C1221.00588,234.779572 1220.87934,235.01826 1220.893,235.27 C1220.89393,235.605881 1221.14064,235.890452 1221.473,235.939 L1221.308,240.648 C1220.87116,240.746634 1220.55547,241.127021 1220.53904,241.574559 C1220.52262,242.022097 1220.80956,242.424605 1221.238,242.555 L1221.013,248.876 C1215.69679,253.769101 1211.05267,259.345337 1207.202,265.459 L1207.202,247.966 L1207.112,247.966 C1207.072,247.318 1207.067,246.66 1206.977,246.022 C1206.82717,244.840565 1206.59494,243.671048 1206.282,242.522 C1206.247,242.385 1206.197,242.243 1206.162,242.111 C1205.987,241.553 1205.782,240.947 1205.547,240.299 C1205.462,240.078 1205.372,239.835 1205.277,239.588 C1202.628,232.75 1196.185,221.319 1180.804,209.524 L1180.57,202.842 C1181.27255,202.571684 1181.73446,201.894751 1181.73,201.142 C1181.73699,200.343706 1181.21506,199.637062 1180.45,199.409 L1180.175,191.618 C1180.756,191.518308 1181.1625,190.988406 1181.10828,190.401418 C1181.05406,189.81443 1180.55737,189.367957 1179.96794,189.376377 C1179.37851,189.384798 1178.89478,189.845277 1178.85735,190.433574 C1178.81992,191.021872 1179.24139,191.539946 1179.825,191.623 L1179.55,199.409 C1178.80856,199.636223 1178.29288,200.308734 1178.2658,201.083733 C1178.23873,201.858732 1178.70623,202.565591 1179.43,202.844 L1179.185,209.798 C1165.794,220.139 1159.171,230.19 1155.962,237.075 L1155.952,237.107 C1154.91301,239.315752 1154.07334,241.612875 1153.443,243.971 C1153.403,244.123667 1153.36967,244.260667 1153.343,244.382 L1153.333,244.445 C1153.283,244.651 1153.233,244.851 1153.198,245.03 C1153.188,245.12 1153.158,245.214 1153.148,245.304 L1153.148,245.315 C1153.12327,245.395833 1153.10652,245.478898 1153.098,245.563 C1153.08376,245.596326 1153.07531,245.631834 1153.073,245.668 C1153.05157,245.761687 1153.03819,245.857034 1153.033,245.953 L1153.023,246.027 C1152.933,246.664 1152.923,247.327 1152.888,247.971 L1152.798,247.971 L1152.798,276.402 C1146.04,264.502 1131.839,256.063 1115.098,255.12 C1115.19541,254.850911 1115.24941,254.568047 1115.258,254.282 C1115.25579,253.371654 1114.77288,252.530184 1113.988,252.069 L1113.313,236.555 C1113.94906,236.461117 1114.3981,235.882606 1114.33128,235.24314 C1114.26445,234.603673 1113.70551,234.130499 1113.06378,234.170146 C1112.42206,234.209792 1111.9256,234.748171 1111.938,235.391 C1111.93617,235.915269 1112.27711,236.379185 1112.778,236.534 L1111.688,252.021 C1110.86362,252.473959 1110.35182,253.34038 1110.353,254.281 C1110.3666,254.54474 1110.41709,254.805273 1110.503,255.055 C1086.32,255.703 1066.941,271.981 1066.941,292.014 C1066.941,292.794 1066.971,293.568 1067.026,294.342 L1066.941,294.342 L1066.941,263.459 L1067.861,263.459 L1067.861,259.529 L1069.45,259.529 L1069.45,254.498 L1066.941,254.498 L1066.941,214.984 L1067.861,214.984 L1067.861,211.059 L1069.45,211.059 L1069.45,206.023 L1066.823,206.023 C1066.72915,201.690953 1066.38693,197.367855 1065.798,193.075 C1065.798,193.075 1060.045,158.334 1058.94,158.323 C1057.835,158.312 1051.852,192.664 1051.852,192.664 C1051.21138,197.090541 1050.83737,201.551584 1050.732,206.023 L1048.083,206.023 L1048.083,211.059 L1049.668,211.059 L1049.668,214.984 L1050.593,214.984 L1050.593,254.498 L1048.084,254.498 L1048.084,259.529 L1049.669,259.529 L1049.669,263.459 L1050.594,263.459 L1050.594,271.192 C1040.677,259.898 1024.982,252.292 1007.047,251.292 C1007.17485,250.942239 1007.24575,250.574227 1007.257,250.202 C1007.25785,249.011252 1006.62564,247.909824 1005.597,247.31 L1004.732,227.092 C1005.55584,226.964285 1006.13392,226.211749 1006.04495,225.382831 C1005.95598,224.553914 1005.23135,223.941205 1004.39918,223.99124 C1003.567,224.041275 1002.92101,224.736393 1002.932,225.57 C1002.92456,226.255735 1003.36749,226.865278 1004.022,227.07 L1002.602,247.256 C1001.52946,247.849857 1000.86476,248.98003 1000.867,250.206 C1000.8818,250.546749 1000.9458,250.883567 1001.057,251.206 C982.497,251.706 966.157,259.261 955.815,270.734 L955.815,265.113 L952.161,265.113 L952.161,194.877 L953.506,194.877 L953.506,189.167 L955.815,189.167 L955.815,181.834 L952.161,181.834 L952.161,124.319 L953.506,124.319 L953.506,118.598 L955.815,118.598 L955.815,111.27 L952.076,111.27 C951.918867,104.958762 951.39666,98.6619036 950.512,92.411 C950.512,92.411 942.129,41.84 940.52,41.8239962 C938.911,41.808 930.208,91.8239962 930.208,91.8239962 C929.245922,98.265331 928.666904,104.758075 928.474,111.268 L924.715,111.268 L924.715,118.596 L927.029,118.596 L927.029,124.317 L928.374,124.317 L928.374,181.831 L924.715,181.831 L924.715,189.164 L927.029,189.164 L927.029,194.874 L928.374,194.874 L928.374,265.105 L924.715,265.105 L924.715,272.432 L927.029,272.432 L927.029,278.142 L928.374,278.142 L928.374,294.342 L885.436,294.342 Z M953.506,272.433 L954.286,272.433 C954.006,272.765 953.776,273.133 953.506,273.471 L953.506,272.433 Z" id="Path_91" fill="url(#radialGradient-3)"></path>
                    <path d="M995.616,294.342 L995.616,534.353 L0.436,534.353 L0.436,294.342 L10.443,294.342 L10.443,283.332 L9.093,283.332 L9.093,277.616 L6.779,277.616 L6.779,270.294 L10.443,270.294 L10.443,200.071 L9.093,200.071 L9.093,194.355 L6.779,194.355 L6.779,187.027 L10.443,187.027 L10.443,129.503 L9.093,129.503 L9.093,123.782 L6.779,123.782 L6.779,116.454 L10.523,116.454 C10.6860716,110.142711 11.2116041,103.846003 12.097,97.595 C12.097,97.595 20.47,47.029 22.085,47.008 C23.7,46.987 32.397,97.008 32.397,97.008 C33.3612132,103.449196 33.942235,109.941948 34.137,116.452 L37.886,116.452 L37.886,123.78 L35.577,123.78 L35.577,129.501 L34.233,129.501 L34.233,187.026 L37.887,187.026 L37.887,194.354 L35.578,194.354 L35.578,200.07 L34.234,200.07 L34.234,270.296 L37.888,270.296 L37.888,277.618 L35.579,277.618 L35.579,283.334 L34.235,283.334 L34.235,294.342 L41.148,294.342 L41.148,277.735 L41.268,277.735 C41.2935433,277.086126 41.3519515,276.438962 41.443,275.796 C41.6422078,274.604813 41.9463932,273.433582 42.352,272.296 C42.397,272.159 42.457,272.027 42.507,271.885 C42.736,271.332 42.997,270.726 43.301,270.073 C43.416,269.857 43.531,269.609 43.656,269.373 C47.1,262.541 55.578,251.21 75.522,239.452 L75.887,229.164 C75.0456241,228.838396 74.4926066,228.027171 74.497,227.125 C74.4886101,226.16951 75.1152536,225.324459 76.032,225.055 L76.362,215.736 C75.6505244,215.628727 75.1420601,214.991084 75.1958473,214.27358 C75.2496345,213.556076 75.8474827,213.001368 76.567,213.001368 C77.2865173,213.001368 77.8843655,213.556076 77.9381527,214.27358 C77.9919399,214.991084 77.4834756,215.628727 76.772,215.736 L77.107,225.05 C77.9944973,225.322471 78.6117246,226.127563 78.6444256,227.055368 C78.6771265,227.983173 78.1181121,228.829722 77.252,229.164 L77.622,239.547 C95.172,249.914 103.679,259.939 107.868,266.847 L107.883,266.879 C109.219076,269.042017 110.316817,271.343452 111.157,273.743 C111.202,273.896 111.257,274.033 111.287,274.154 L111.307,274.217 C111.362,274.422 111.432,274.617 111.482,274.802 C111.497,274.892 111.532,274.981 111.542,275.071 L111.542,275.087 C111.568632,275.16625 111.59034,275.247071 111.607,275.329 C111.614824,275.364585 111.624843,275.399652 111.637,275.434 C111.664637,275.526404 111.681417,275.621713 111.687,275.718 C111.697892,275.74308 111.704646,275.769759 111.707,275.797 C111.798139,276.439952 111.856548,277.08712 111.882,277.736 L111.993,277.736 L111.993,294.342 L116.332,294.342 L116.332,264.376 L115.402,264.376 L115.402,260.442 L113.817,260.442 L113.817,255.411 L116.331,255.411 L116.331,215.906 L115.401,215.906 L115.401,211.976 L113.816,211.976 L113.816,206.942 L116.435,206.942 C116.531577,202.608099 116.873792,198.283159 117.46,193.988 C117.46,193.988 123.218,159.252 124.323,159.241 C125.428,159.23 131.411,193.587 131.411,193.587 C132.048761,198.012282 132.424416,202.47139 132.536,206.941 L135.18,206.941 L135.18,211.972 L133.593,211.972 L133.593,215.902 L132.668,215.902 L132.668,255.411 L135.177,255.411 L135.177,260.442 L133.593,260.442 L133.593,264.372 L132.668,264.372 L132.668,294.342 L137.402,294.342 C137.392,294.036 137.362,293.731 137.362,293.425 C137.362,267.902 161.5,247.057 192.026,245.345 C191.905716,244.9953 191.838307,244.629604 191.826,244.26 C191.824939,243.069457 192.456748,241.968076 193.485,241.368 L194.355,221.15 C193.639708,220.997122 193.13267,220.359343 193.145,219.628 C193.174949,218.861877 193.777826,218.241659 194.542792,218.190001 C195.307757,218.138344 195.988546,218.671877 196.121225,219.427018 C196.253903,220.182158 195.795759,220.915804 195.059,221.128 L196.474,241.314 C197.905664,242.05834 198.565638,243.747174 198.018,245.265 C216.208,245.75 232.273,253.019 242.635,264.113 L242.635,248.962 L242.75,248.962 C242.773023,248.311305 242.831443,247.662345 242.925,247.018 C243.125266,245.829223 243.429774,244.66038 243.835,243.525 C243.88,243.383 243.95,243.246 244,243.109 C244.22,242.556 244.485,241.95 244.8,241.302 C244.9,241.075 245.025,240.828 245.15,240.591 C248.599,233.748 256.991,222.306 277.056,210.517 L277.406,200.556 C276.545007,200.217194 275.991125,199.372407 276.023716,198.447725 C276.056307,197.523044 276.66829,196.719349 277.551,196.442 L277.886,187.118 C277.209784,187.00716 276.716481,186.418174 276.726,185.733 C276.744942,185.00728 277.326705,184.422332 278.052311,184.399428 C278.777917,184.376524 279.395413,184.923618 279.460086,185.646699 C279.52476,186.36978 279.014154,187.017772 278.296,187.124 L278.626,196.443 C279.514929,196.713316 280.13433,197.518002 280.168184,198.446505 C280.202039,199.375009 279.642883,200.222666 278.776,200.557 L279.141,210.766 C296.631,221.107 305.234,231.179 309.417,238.066 L309.437,238.113 C310.770168,240.274082 311.867775,242.571883 312.711,244.967 C312.756,245.114 312.806,245.251 312.836,245.373 L312.856,245.436 C312.921,245.641 312.981,245.847 313.031,246.021 C313.051,246.116 313.081,246.205 313.101,246.295 L313.101,246.311 C313.130725,246.387214 313.150879,246.466823 313.161,246.548 C313.167779,246.586367 313.179546,246.623683 313.196,246.659 C313.219207,246.752398 313.235914,246.847292 313.246,246.943 L313.261,247.017 C313.371,247.66 313.381,248.307 313.431,248.961 L313.551,248.961 L313.551,272.93 C322.70076,262.595466 334.649308,255.133876 347.951,251.448 C347.705613,250.376435 347.734851,249.260249 348.036,248.203 C348.245165,247.083475 348.585859,245.992581 349.051,244.953 C350.895,240.897 354.929,238.021 363.607,234.675 L363.607,230.008 L365.867,230.008 L366.247,219.408 C365.547,219.176 365.047,218.76 365.047,218.26 C365.047,217.738 365.577,217.296 366.326,217.075 L366.611,208.963 C361.151505,210.302888 355.379453,209.230077 350.766,206.018 C346.095772,202.752552 342.903407,197.77551 341.883,192.169 C343.361638,194.411919 345.256901,196.350295 347.466,197.879 C356.928,204.406 369.64,201.603 375.838,191.626 C378.798925,186.834732 379.849809,181.1052 378.782,175.575 C383.572741,182.890853 383.707156,192.315498 379.127,199.765 C376.50407,204.059474 372.391867,207.237958 367.575,208.694 L368.055,216.994 C368.98,217.173 369.664,217.658 369.664,218.258 C369.664,218.827 369.049,219.306 368.189,219.501 L368.789,230.001 L371.104,230.001 L371.104,234.742 C379.036,237.818 383.035,240.516 385.03,244.108 C385.726872,245.385601 386.211521,246.767946 386.465,248.201 C386.772401,249.25711 386.803391,250.374475 386.555,251.446 C387.685,251.752 388.744,252.146 389.834,252.505 C398.916,237.376 415.287,220.987 438.834,214.671 C438.834,214.671 438.414,213.628 438.934,210.999 C439.171893,209.729557 439.556124,208.491965 440.079,207.311 C442.168,202.717 446.737,199.462 456.569,195.674 L456.569,190.39 L459.128,190.39 L459.548,178.39 C458.753,178.132 458.193,177.663 458.193,177.084 C458.193,176.505 458.788,176.004 459.638,175.746 L459.968,166.559 C453.781895,168.081233 447.23987,166.866103 442.013,163.224 C436.72612,159.531934 433.11154,153.901067 431.956,147.557 C433.635017,150.091457 435.782867,152.281734 438.284,154.01 C448.996,161.401 463.392,158.224 470.4,146.935 C473.758776,141.510576 474.9526,135.020586 473.744,128.756 C479.168727,137.038901 479.320681,147.709995 474.134,156.144 C471.162267,161.006089 466.506562,164.605799 461.053,166.258 L461.593,175.666 C462.648,175.861 463.423,176.414 463.423,177.083 C463.423,177.731 462.728,178.283 461.753,178.495 L462.438,190.39 L465.047,190.39 L465.047,195.758 C474.034,199.245 478.563,202.29 480.817,206.358 C481.604976,207.8079 482.155299,209.3748 482.447,210.999 C482.788157,212.195352 482.820839,213.458608 482.542,214.671 C507.355,221.33 524.255,239.177 532.992,254.933 C536.13208,253.525999 539.374798,252.360291 542.692,251.446 C542.44657,250.374439 542.475808,249.258243 542.777,248.201 C542.986825,247.082247 543.325758,245.99162 543.787,244.951 C545.637,240.895 549.67,238.019 558.348,234.673 L558.348,230.006 L560.593,230.006 L560.968,219.406 C560.268,219.174 559.768,218.758 559.768,218.258 C559.768,217.736 560.303,217.294 561.048,217.073 L561.333,208.961 C555.873505,210.300888 550.101453,209.228077 545.488,206.016 C540.818149,202.750365 537.62616,197.77335 536.606,192.167 C538.083375,194.410938 539.978854,196.349535 542.189,197.877 C551.656,204.404 564.368,201.601 570.561,191.624 C573.521832,186.832696 574.57271,181.103201 573.505,175.573 C578.295496,182.888928 578.429909,192.31343 573.85,199.763 C571.227141,204.057537 567.114911,207.236043 562.298,208.692 L562.773,216.992 C563.703,217.171 564.387,217.656 564.387,218.256 C564.387,218.825 563.772,219.304 562.913,219.499 L563.513,229.999 L565.822,229.999 L565.822,234.742 C573.755,237.818 577.759,240.516 579.748,244.108 C580.444153,245.386387 580.930351,246.768338 581.188,248.201 C581.49264,249.257712 581.521901,250.374788 581.273,251.446 C600.992,256.735 615.053,270.036 623.291,282.795 L623.291,249.304 L622.366,249.304 L622.366,245.379 L620.793,245.379 L620.793,240.342 L623.302,240.342 L623.302,200.835 L622.377,200.835 L622.377,196.905 L620.793,196.905 L620.793,191.874 L623.417,191.874 C623.509923,187.539734 623.853832,183.21449 624.447,178.92 C624.447,178.92 630.195,144.184 631.3,144.173 C632.405,144.162 638.388,178.509 638.388,178.509 C639.027881,182.937728 639.403546,187.400623 639.513,191.874 L642.157,191.874 L642.157,196.905 L640.573,196.905 L640.573,200.835 L639.648,200.835 L639.648,240.342 L642.157,240.342 L642.157,245.378 L640.573,245.378 L640.573,249.303 L639.648,249.303 L639.648,275.912 C642.322,268.958 647.806,258.912 658.927,248.612 L659.142,242.554 C658.722715,242.416802 658.445,242.018492 658.461242,241.57763 C658.477484,241.136768 658.783756,240.759973 659.212,240.654 L659.377,235.939 C659.048353,235.885135 658.805868,235.603009 658.802,235.27 C658.788342,235.01826 658.91488,234.779572 659.130901,234.649593 C659.346922,234.519614 659.617078,234.519614 659.833099,234.649593 C660.04912,234.779572 660.175658,235.01826 660.162,235.27 C660.161068,235.605881 659.914356,235.890452 659.582,235.939 L659.747,240.648 C660.183842,240.746634 660.499528,241.127021 660.515955,241.574559 C660.532383,242.022097 660.245436,242.424605 659.817,242.555 L660.042,248.876 C665.358211,253.769101 670.002329,259.345337 673.853,265.459 L673.853,247.966 L673.943,247.966 C673.983,247.318 673.988,246.66 674.078,246.022 C674.227831,244.840565 674.460064,243.671048 674.773,242.522 C674.808,242.385 674.858,242.243 674.893,242.111 C675.068,241.553 675.273,240.947 675.508,240.299 C675.593,240.078 675.683,239.835 675.778,239.588 C678.427,232.75 684.87,221.319 700.251,209.524 L700.486,202.839 C699.783445,202.568684 699.321538,201.891751 699.326,201.139 C699.319015,200.340706 699.840945,199.634062 700.606,199.406 L700.881,191.615 C700.300004,191.515308 699.893498,190.985406 699.947718,190.398418 C700.001938,189.81143 700.498632,189.364957 701.088059,189.373377 C701.677486,189.381798 702.161223,189.842277 702.198654,190.430574 C702.236084,191.018872 701.814607,191.536946 701.231,191.62 L701.506,199.406 C702.247435,199.633223 702.763121,200.305734 702.790195,201.080733 C702.817269,201.855732 702.349771,202.562591 701.626,202.841 L701.871,209.795 C715.262,220.136 721.885,230.187 725.094,237.072 L725.104,237.104 C726.142989,239.312752 726.982657,241.609875 727.613,243.968 C727.653,244.120667 727.686333,244.257667 727.713,244.379 L727.723,244.442 C727.773,244.648 727.823,244.848 727.858,245.027 C727.868,245.117 727.898,245.211 727.908,245.301 L727.908,245.312 C727.93274,245.392832 727.949487,245.475897 727.958,245.56 C727.972256,245.59332 727.980711,245.628831 727.983,245.665 C728.004427,245.758687 728.017809,245.854034 728.023,245.95 L728.033,246.024 C728.123,246.661 728.133,247.323996 728.168,247.968 L728.258,247.968 L728.258,276.402 C735.016,264.502 749.217,256.063 765.958,255.12 C765.860593,254.850911 765.806586,254.568047 765.798,254.282 C765.800211,253.371654 766.283115,252.530184 767.068,252.069 L767.743,236.555 C767.106943,236.461117 766.657897,235.882606 766.724722,235.24314 C766.791547,234.603673 767.350495,234.130499 767.99222,234.170146 C768.633945,234.209792 769.130397,234.748171 769.118,235.391 C769.119828,235.915269 768.778892,236.379185 768.278,236.534 L769.368,252.021 C770.192377,252.473959 770.704178,253.34038 770.703,254.281 C770.689385,254.544738 770.638894,254.805269 770.553,255.055 C794.736,255.703 814.115,271.981 814.115,292.014 C814.115,292.794 814.085,293.568 814.03,294.342 L814.115,294.342 L814.115,263.459 L813.195,263.459 L813.195,259.529 L811.606,259.529 L811.606,254.498 L814.115,254.498 L814.115,214.984 L813.195,214.984 L813.195,211.059 L811.606,211.059 L811.606,206.023 L814.23,206.023 C814.323845,201.690953 814.666074,197.367855 815.255,193.075 C815.255,193.075 821.008,158.334 822.113,158.323 C823.218,158.312 829.201,192.664 829.201,192.664 C829.841608,197.090543 830.215616,201.551584 830.321,206.023 L832.97,206.023 L832.97,211.059 L831.385,211.059 L831.385,214.984 L830.46,214.984 L830.46,254.498 L832.969,254.498 L832.969,259.529 L831.384,259.529 L831.384,263.459 L830.459,263.459 L830.459,271.192 C840.376,259.898 856.071,252.292 874.006,251.292 C873.878147,250.942239 873.807245,250.574227 873.796,250.202 C873.795147,249.011252 874.427364,247.909824 875.456,247.31 L876.321,227.092 C875.497162,226.964285 874.919078,226.211749 875.008051,225.382831 C875.097023,224.553914 875.821647,223.941205 876.653823,223.99124 C877.485999,224.041275 878.131988,224.736393 878.121,225.57 C878.12844,226.255735 877.685506,226.865278 877.031,227.07 L878.451,247.256 C879.523154,247.850118 880.187436,248.980241 880.185,250.206 C880.170171,250.546746 880.106176,250.88356 879.995,251.206 C898.555,251.706 914.895,259.261 925.237,270.734 L925.237,265.113 L928.891,265.113 L928.891,194.877 L927.547,194.877 L927.547,189.167 L925.238,189.167 L925.238,181.834 L928.892,181.834 L928.892,124.319 L927.548,124.319 L927.548,118.598 L925.239,118.598 L925.239,111.27 L928.978,111.27 C929.135465,104.958742 929.658005,98.6618841 930.543,92.411 C930.543,92.411 938.925,41.84 940.535,41.8239962 C942.145,41.808 950.847,91.8239962 950.847,91.8239962 C951.809092,98.2653294 952.38811,104.758074 952.581,111.268 L956.34,111.268 L956.34,118.596 L954.026,118.596 L954.026,124.317 L952.682,124.317 L952.682,181.831 L956.341,181.831 L956.341,189.164 L954.027,189.164 L954.027,194.874 L952.683,194.874 L952.683,265.105 L956.342,265.105 L956.342,272.432 L954.028,272.432 L954.028,278.142 L952.684,278.142 L952.684,294.342 L995.616,294.342 Z M927.546,272.433 L926.766,272.433 C927.046,272.765 927.276,273.133 927.546,273.471 L927.546,272.433 Z" id="Path_42785" fill="url(#radialGradient-4)"></path>
                    <path d="M66.085,412.183 L66.085,940.611 L1689.242,940.611 L1689.242,412.183 L1672.932,412.183 L1672.932,394.233 L1675.126,394.233 L1675.126,384.899 L1678.895,384.899 L1678.895,372.953 L1672.932,372.953 L1672.932,258.419 L1675.126,258.419 L1675.126,249.095 L1678.895,249.095 L1678.895,237.143 L1672.932,237.143 L1672.932,143.317 L1675.126,143.317 L1675.126,133.993 L1678.895,133.993 L1678.895,122.04 L1672.802,122.04 C1672.53573,111.747719 1671.67631,101.479348 1670.228,91.286 C1670.228,91.286 1656.567,8.802 1653.938,8.77 C1651.309,8.738 1637.123,90.3159938 1637.123,90.3159938 C1635.5508,100.824962 1634.6028,111.417867 1634.284,122.039 L1628.158,122.039 L1628.158,133.993 L1631.932,133.993 L1631.932,143.317 L1634.126,143.317 L1634.126,237.143 L1628.158,237.143 L1628.158,249.096 L1631.932,249.096 L1631.932,258.42 L1634.126,258.42 L1634.126,372.953 L1628.158,372.953 L1628.158,384.895 L1631.932,384.895 L1631.932,394.233 L1634.126,394.233 L1634.126,412.183 L1622.845,412.183 L1622.845,385.09 L1622.645,385.09 C1622.61431,384.033907 1622.52249,382.980477 1622.37,381.935 C1622.04167,379.990712 1621.54651,378.078313 1620.89,376.219 C1620.81,375.998 1620.705,375.771 1620.625,375.55 C1620.255,374.644 1619.83,373.659 1619.325,372.595 C1619.145,372.232 1618.96,371.836 1618.75,371.441 C1613.136,360.305 1599.3,341.82 1566.77,322.641 L1566.175,305.852 C1567.55184,305.330112 1568.45749,304.005374 1568.444,302.533 C1568.46263,300.973954 1567.44056,299.59335 1565.944,299.156 L1565.414,283.956 C1566.57142,283.778261 1567.39663,282.739047 1567.3075,281.571459 C1567.21837,280.403871 1566.24498,279.501954 1565.074,279.501954 C1563.90302,279.501954 1562.92963,280.403871 1562.8405,281.571459 C1562.75137,282.739047 1563.57658,283.778261 1564.734,283.956 L1564.199,299.149 C1562.74886,299.586625 1561.73734,300.89772 1561.68198,302.411439 C1561.62663,303.925158 1562.5397,305.306631 1563.954,305.849 L1563.359,322.785 C1534.732,339.7 1520.859,356.052 1514.023,367.325 L1513.998,367.399 C1511.81593,370.918065 1510.02401,374.664531 1508.654,378.572 C1508.584,378.82 1508.499,379.041 1508.454,379.241 C1508.454,379.241 1508.454,379.315 1508.429,379.336 C1508.329,379.684 1508.214,380 1508.134,380.3 C1508.109,380.447 1508.054,380.59 1508.034,380.737 L1508.034,380.758 C1507.99062,380.888991 1507.95555,381.02259 1507.929,381.158 C1507.899,381.232 1507.899,381.279 1507.874,381.332 C1507.82775,381.482646 1507.80087,381.638565 1507.794,381.796 C1507.77958,381.838627 1507.77117,381.883053 1507.769,381.928 C1507.62065,382.974164 1507.52553,384.027187 1507.484,385.083 L1507.294,385.083 L1507.294,412.183 L1500.221,412.183 L1500.221,363.313 L1501.736,363.313 L1501.736,356.902 L1504.32,356.902 L1504.32,348.695 L1500.22,348.695 L1500.22,284.242 L1501.735,284.242 L1501.735,277.842 L1504.319,277.842 L1504.319,269.633 L1500.04,269.633 C1499.88525,262.56399 1499.32767,255.509548 1498.37,248.504 C1498.37,248.504 1488.978,191.854 1487.17,191.832 C1485.362,191.81 1475.619,247.856 1475.619,247.856 C1474.57363,255.072006 1473.95921,262.343895 1473.779,269.633 L1469.465,269.633 L1469.465,277.845 L1472.054,277.845 L1472.054,284.245 L1473.564,284.245 L1473.564,348.697 L1469.464,348.697 L1469.464,356.904 L1472.053,356.904 L1472.053,363.315 L1473.563,363.315 L1473.563,412.185 L1465.835,412.185 C1465.85,411.685 1465.895,411.195 1465.895,410.694 C1465.895,369.062 1426.531,335.069 1376.741,332.272 C1376.94865,331.704087 1377.06345,331.10643 1377.081,330.502 C1377.08438,328.560476 1376.05631,326.763253 1374.381,325.782 L1372.958,292.808 C1374.17406,292.565977 1375.01713,291.45297 1374.92076,290.216815 C1374.82439,288.98066 1373.819,288.011762 1372.58013,287.96113 C1371.34126,287.910498 1370.26016,288.794122 1370.06324,290.01829 C1369.86631,291.242459 1370.61575,292.420551 1371.808,292.761 L1369.508,325.685 C1367.16394,326.890347 1366.08406,329.652401 1366.989,332.128 C1337.318,332.928 1311.115,344.776 1294.215,362.871 L1294.215,338.159 L1294.025,338.159 C1293.98746,337.101134 1293.894,336.045993 1293.745,334.998 C1293.41463,333.05571 1292.91814,331.145364 1292.261,329.288 C1292.181,329.062 1292.076,328.846 1292.001,328.624 C1291.631,327.713 1291.201,326.724 1290.691,325.663 C1290.516,325.3 1290.331,324.904 1290.116,324.509 C1284.488,313.346 1270.797,294.683 1238.071,275.455 L1237.501,259.209 C1238.87661,258.67972 1239.78068,257.353884 1239.771,255.88 C1239.7861,254.320979 1238.76588,252.940831 1237.271,252.498 L1236.736,237.305 C1237.89162,237.126038 1238.71465,236.087552 1238.6249,234.921607 C1238.53515,233.755662 1237.56289,232.855363 1236.3935,232.855363 C1235.22411,232.855363 1234.25185,233.755662 1234.1621,234.921607 C1234.07235,236.087552 1234.89538,237.126038 1236.051,237.305 L1235.516,252.498 C1234.01714,252.936939 1232.99238,254.318259 1233.007,255.88 C1232.99522,257.352726 1233.89701,258.678715 1235.271,259.209 L1234.686,275.855 C1206.159,292.728 1192.118,309.148 1185.295,320.395 L1185.265,320.469 C1183.08622,323.990751 1181.29639,327.738728 1179.927,331.647 C1179.847,331.889 1179.777,332.116 1179.717,332.311 C1179.717,332.337 1179.717,332.385 1179.687,332.406 C1179.587,332.754 1179.477,333.075 1179.397,333.37 C1179.372,333.518 1179.322,333.67 1179.297,333.813 L1179.297,333.833 C1179.24782,333.962571 1179.21099,334.0965 1179.187,334.233 C1179.17517,334.292282 1179.15845,334.350481 1179.137,334.407 C1179.09642,334.56064 1179.06965,334.717597 1179.057,334.876 C1179.03965,334.915903 1179.02949,334.95856 1179.027,335.002 C1178.878,336.049993 1178.78454,337.105134 1178.747,338.163 L1178.557,338.163 L1178.557,377.256 C1164.966,362.206 1146.266,348.615 1122.438,342.225 C1122.438,342.225 1123.038,340.725 1122.303,336.936 C1121.9604,335.108217 1121.40704,333.32632 1120.654,331.626 C1117.64,325.009 1111.067,320.326 1096.906,314.853 L1096.906,307.253 L1093.217,307.253 L1092.607,289.969 C1093.752,289.6 1094.561,288.91 1094.561,288.088 C1094.561,287.24 1093.701,286.523 1092.477,286.16 L1092.012,272.917 C1100.9161,275.113026 1110.33468,273.366106 1117.859,268.123 C1125.47793,262.800386 1130.68613,254.683845 1132.35,245.54 C1129.93879,249.200586 1126.84511,252.362508 1123.238,254.853 C1107.803,265.489 1087.074,260.922 1076.967,244.653 C1072.13956,236.837086 1070.42159,227.493915 1072.153,218.472 C1064.34685,230.408007 1064.13067,245.777152 1071.598,257.928 C1075.87499,264.930911 1082.58214,270.112574 1090.438,272.483 L1089.658,286.033 C1088.143,286.307 1087.029,287.113 1087.029,288.082 C1087.029,289.014 1088.024,289.794 1089.429,290.115 L1088.454,307.246 L1084.675,307.246 L1084.675,314.979 C1071.739,319.994 1065.221,324.387 1061.961,330.251 C1060.82985,332.338577 1060.04019,334.593779 1059.622,336.931 C1058.882,340.719 1059.482,342.22 1059.482,342.22 C1057.643,342.71 1055.908,343.363 1054.129,343.937 C1039.318,319.273 1012.616,292.537 974.212,282.237 C974.212,282.237 974.892,280.537 974.052,276.248 C973.666919,274.180505 973.041335,272.165145 972.188,270.243 C968.774,262.752 961.326,257.431 945.296,251.258 L945.296,242.645 L941.122,242.645 L940.442,223.07 C941.732,222.649 942.642,221.87 942.642,220.942 C942.642,219.983 941.672,219.167 940.288,218.756 L939.758,203.769 C949.842336,206.252233 960.507628,204.27344 969.03,198.338 C977.657268,192.313304 983.552471,183.12182 985.43,172.768 C982.701493,176.909895 979.200313,180.487128 975.118,183.304 C957.643,195.352 934.165,190.179 922.728,171.757 C917.255076,162.908833 915.308654,152.326479 917.275,142.11 C908.430985,155.625093 908.183619,173.031042 916.64,186.792 C921.489997,194.718144 929.084737,200.58459 937.979,203.275 L937.104,218.615 C935.384,218.936 934.12,219.837 934.12,220.943 C934.12,221.996 935.25,222.882 936.839,223.243 L935.724,242.643 L931.458,242.643 L931.458,251.404 C916.802,257.083 909.419,262.05 905.73,268.688 C904.451941,271.050872 903.559371,273.602663 903.086,276.247 C902.246,280.535 902.931,282.236 902.931,282.236 C862.453,293.088 834.896,322.219 820.645,347.91 C815.524396,345.613169 810.235643,343.711291 804.825,342.221 C804.825,342.221 805.425,340.721 804.69,336.932 C804.347832,335.103383 803.79237,333.321208 803.035,331.622 C800.026,325.005 793.448,320.322 779.292,314.854 L779.292,307.247 L775.603,307.247 L775.003,289.963 C776.148,289.594 776.947,288.904 776.947,288.082 C776.947,287.234 776.087,286.517 774.868,286.154 L774.403,272.911 C783.307076,275.107959 792.726038,273.360967 800.25,268.117 C807.864804,262.791555 813.06937,254.675279 814.732,245.533 C812.324026,249.19454 809.231772,252.356741 805.625,254.846 C790.184,265.482 769.456,260.915 759.358,244.646 C754.522678,236.833128 752.802813,227.487389 754.54,218.465 C746.732067,230.399959 746.51393,245.769257 753.98,257.921 C758.258748,264.923985 764.96714,270.105509 772.824,272.476 L772.049,286.03 C770.535,286.304 769.415,287.11 769.415,288.079 C769.415,289.011 770.415,289.791 771.815,290.112 L770.84,307.243 L767.071,307.243 L767.071,314.976 C754.125,319.991 747.607,324.384 744.353,330.248 C743.220315,332.335365 742.428975,334.590547 742.009,336.928 C741.269,340.716 741.874,342.217 741.874,342.217 C709.708,350.84 686.774,372.539 673.329,393.336 L673.329,338.728 L674.844,338.728 L674.844,332.322 L677.433,332.322 L677.433,324.109 L673.333,324.109 L673.333,259.663 L674.848,259.663 L674.848,253.252 L677.437,253.252 L677.437,245.052 L673.158,245.052 C673.002566,237.982702 672.44198,230.928127 671.479,223.923 C671.479,223.923 662.102,167.267 660.292,167.251 C658.482,167.235 648.74,223.259 648.74,223.259 C647.696498,230.480658 647.080758,237.75768 646.896,245.052 L642.587,245.052 L642.587,253.252 L645.176,253.252 L645.176,259.663 L646.676,259.663 L646.676,324.11 L642.582,324.11 L642.582,332.323 L645.171,332.323 L645.171,338.729 L646.671,338.729 L646.671,382.12 C642.312,370.784 633.371,354.401 615.22,337.596 L614.875,327.713 C615.564681,327.49293 616.023653,326.840794 615.998047,326.117306 C615.972441,325.393818 615.468513,324.775762 614.765,324.605 L614.495,316.919 C615.02814,316.826909 615.420613,316.368953 615.43,315.828 C615.454739,315.416627 615.249324,315.025461 614.896617,314.812299 C614.543911,314.599136 614.102089,314.599136 613.749383,314.812299 C613.396676,315.025461 613.191261,315.416627 613.216,315.828 C613.218644,316.376788 613.61888,316.842671 614.161,316.928 L613.891,324.609 C613.179966,324.774085 612.667694,325.395073 612.640799,326.124524 C612.613903,326.853976 613.079053,327.511002 613.776,327.728 L613.411,338.028 C604.737358,346.006312 597.163295,355.102721 590.888,365.078 L590.888,336.542 L590.738,336.542 C590.678,335.478 590.663,334.409 590.523,333.371 C590.277916,331.443199 589.896968,329.535118 589.383,327.661 C589.328,327.434 589.248,327.218 589.188,326.992 C588.903,326.086 588.573,325.101 588.188,324.037 C588.048,323.679 587.903,323.284 587.743,322.889 C583.429,311.727 572.917,293.078 547.835,273.851 L547.45,262.941 C548.622361,262.479759 549.376349,261.329264 549.331384,260.070236 C549.286419,258.811209 548.452277,257.717432 547.25,257.341 L546.805,244.641 C547.725449,244.480799 548.392837,243.675184 548.379,242.741 C548.348937,241.755804 547.557447,240.964099 546.572259,240.933768 C545.587071,240.903436 544.748378,241.644952 544.657765,242.626433 C544.567153,243.607914 545.255911,244.490447 546.23,244.641 L545.785,257.331 C544.53446,257.701851 543.680411,258.855673 543.691,260.16 C543.680425,261.394547 544.43796,262.505732 545.591,262.947 L545.191,274.289 C523.352,291.146 512.545,307.54 507.322,318.771 C507.322,318.803 507.302,318.824 507.302,318.855 C505.60068,322.44613 504.228398,326.184092 503.202,330.023 C503.137,330.271 503.077,330.492 503.037,330.687 C503.040518,330.723193 503.033577,330.759635 503.017,330.792 C502.937,331.129 502.852,331.456 502.792,331.745 C502.772,331.898 502.732,332.045 502.712,332.187 L502.712,332.213 C502.679759,332.344873 502.654722,332.478404 502.637,332.613 C502.615328,332.668762 502.601855,332.727372 502.597,332.787 C502.556681,332.938623 502.533206,333.09423 502.527,333.251 C502.515876,333.290469 502.509168,333.331051 502.507,333.372 C502.362,334.41 502.352,335.479 502.292,336.543 L502.147,336.543 L502.147,338.676 L502.142,338.713 L502.147,338.755 L502.147,382.915 C491.125,363.508 467.962,349.738 440.647,348.205 C440.811384,347.770198 440.900983,347.310708 440.912,346.846 C440.913135,345.358057 440.12581,343.980905 438.843,343.227 L437.748,317.927 C438.671424,317.732638 439.303687,316.878525 439.219932,315.938592 C439.136177,314.998659 438.362858,314.269794 437.419618,314.241766 C436.476377,314.213739 435.661146,314.895401 435.521729,315.828703 C435.382312,316.762004 435.962746,317.652152 436.873,317.901 L435.098,343.153 C433.754522,343.895203 432.922897,345.311151 432.929,346.846 C432.947061,347.271445 433.026204,347.692083 433.164,348.095 C393.716,349.159 362.115,375.709 362.115,408.375 C362.115,409.655 362.16,410.93 362.26,412.184 L362.115,412.184 L362.115,361.806 L363.615,361.806 L363.615,355.4 L366.215,355.4 L366.215,347.187 L362.115,347.187 L362.115,282.746 L363.615,282.746 L363.615,276.34 L366.215,276.34 L366.215,268.133 L361.926,268.133 C361.779153,261.066951 361.221881,254.015402 360.257,247.014 C360.257,247.014 350.875,190.353 349.07,190.337 C347.265,190.321 337.513,246.355 337.513,246.355 C336.470498,253.571315 335.856422,260.843054 335.674,268.132 L331.358,268.132 L331.358,276.345 L333.947,276.345 L333.947,282.751 L335.458,282.751 L335.458,347.193 L331.358,347.193 L331.358,355.406 L333.947,355.406 L333.947,361.812 L335.458,361.812 L335.458,374.423 C319.278,355.996 293.68,343.596 264.429,341.952 C264.63549,341.382225 264.748613,340.782843 264.764,340.177 C264.764792,338.237476 263.73717,336.442945 262.064,335.462 L260.644,302.496 C261.860976,302.252618 262.703972,301.138 262.606824,299.900734 C262.509676,298.663468 261.503048,297.694079 260.263,297.643618 C259.022952,297.593158 257.940888,298.477552 257.743533,299.702834 C257.546177,300.928116 258.295823,302.107543 259.489,302.449 L257.175,335.368 C255.424369,336.334402 254.339852,338.178349 254.346,340.178 C254.369172,340.734535 254.47361,341.28469 254.656,341.811 C224.39,342.622 197.728,354.954 180.872,373.671 L180.872,364.493 L174.908,364.493 L174.908,249.954 L177.108,249.954 L177.108,240.633 L180.877,240.633 L180.877,228.682 L174.908,228.682 L174.908,134.857 L177.108,134.857 L177.108,125.528 L180.877,125.528 L180.877,113.58 L174.777,113.58 C174.511389,103.286397 173.655315,93.0165159 172.213,82.821 C172.213,82.821 158.558,0.342 155.924,0.315993786 C153.29,0.29 139.099,81.862 139.099,81.862 C137.529528,92.3694114 136.584868,102.960688 136.27,113.58 L130.141,113.58 L130.141,125.528 L133.915,125.528 L133.915,134.857 L136.115,134.857 L136.115,228.683 L130.141,228.683 L130.141,240.633 L133.915,240.633 L133.915,249.957 L136.115,249.957 L136.115,364.493 L130.141,364.493 L130.141,376.441 L133.915,376.441 L133.915,385.765 L136.115,385.765 L136.115,412.183 L66.085,412.183 Z M177.108,376.44 L178.368,376.44 C177.918,376.993 177.543,377.588 177.108,378.147 L177.108,376.44 Z" id="Path_93" fill="#FFFFFF"></path>
                </g>
            </g>
        </g>
    </g>
</svg>